<svg width="22" height="22" viewBox="0 0 22 22" fill="none" xmlns="http://www.w3.org/2000/svg">
<path d="M2.75 1.375C1.99061 1.375 1.375 1.99061 1.375 2.75V19.25C1.375 20.0094 1.99061 20.625 2.75 20.625H19.25C20.0094 20.625 20.625 20.0094 20.625 19.25V2.75C20.625 1.99061 20.0094 1.375 19.25 1.375H2.75ZM2.97917 4.35417C2.97917 3.59477 3.59477 2.97917 4.35417 2.97917H17.6458C18.4052 2.97917 19.0208 3.59477 19.0208 4.35417V17.6458C19.0208 18.4052 18.4052 19.0208 17.6458 19.0208H4.35417C3.59477 19.0208 2.97917 18.4052 2.97917 17.6458V4.35417ZM6.28855 5.17043C5.98432 4.84698 5.47477 4.83352 5.15389 5.14045C4.83765 5.44294 4.82346 5.94348 5.12204 6.26339L7.92385 9.26533C8.41477 9.79131 8.4172 10.6068 7.92945 11.1357L5.14338 14.1567C4.85848 14.4657 4.86816 14.9443 5.16531 15.2415C5.47781 15.554 5.98682 15.5462 6.28961 15.2243L10.4987 10.7494C10.7829 10.4367 10.7829 9.95915 10.4987 9.64648L6.28855 5.17043ZM11.8021 14.4375C11.3591 14.4375 11 14.7966 11 15.2395C11 15.6826 11.3591 16.0417 11.8021 16.0417H16.6145C17.0576 16.0417 17.4167 15.6826 17.4167 15.2395C17.4167 14.7966 17.0576 14.4375 16.6145 14.4375H11.8021Z" fill="url(#paint0_linear_451_3208)" stroke="url(#paint1_linear_451_3208)" stroke-width="0.6"/>
<defs>
<linearGradient id="paint0_linear_451_3208" x1="19.9746" y1="1.92522" x2="12.4663" y2="20.7786" gradientUnits="userSpaceOnUse">
<stop stop-color="#FE0F7C"/>
<stop offset="1" stop-color="#DF0066"/>
</linearGradient>
<linearGradient id="paint1_linear_451_3208" x1="19.9746" y1="1.92522" x2="12.4663" y2="20.7786" gradientUnits="userSpaceOnUse">
<stop stop-color="#FE0F7C"/>
<stop offset="1" stop-color="#DF0066"/>
</linearGradient>
</defs>
</svg>
