<svg width="22" height="22" viewBox="0 0 22 22" fill="none" xmlns="http://www.w3.org/2000/svg">
<path d="M17.9491 2.76179C17.1185 1.87862 15.9605 1.37696 14.748 1.375H12.3177C10.0384 1.37857 8.13612 3.11581 7.92629 5.38543H7.5052C5.06993 5.38808 3.09638 7.36161 3.09375 9.79688V16.2136C3.09638 18.6488 5.06993 20.6223 7.5052 20.625H10.7135C13.1488 20.6223 15.1223 18.6488 15.125 16.2136V15.7925C17.3947 15.583 19.1322 13.6805 19.1354 11.4011V5.76238C19.137 4.64753 18.7126 3.57417 17.9491 2.76179ZM12.7188 16.2136C12.7188 17.321 11.821 18.2188 10.7136 18.2188H7.5052C6.39777 18.2188 5.5 17.321 5.5 16.2136V9.79688C5.5 8.68945 6.39777 7.79168 7.5052 7.79168H7.90625V11.4011C7.9089 13.8363 9.88243 15.8098 12.3177 15.8125H12.7188V16.2136ZM16.7291 11.4011C16.7291 12.5085 15.8314 13.4062 14.7239 13.4062H12.3177C11.2103 13.4062 10.3125 12.5085 10.3125 11.4011V5.78645C10.3125 4.67902 11.2103 3.78125 12.3177 3.78125H14.3229V4.58332C14.3229 5.46927 15.0411 6.1875 15.9271 6.1875H16.7291V11.4011Z" fill="url(#paint0_linear_451_3086)"/>
<defs>
<linearGradient id="paint0_linear_451_3086" x1="3.09375" y1="20.625" x2="23.4427" y2="13.234" gradientUnits="userSpaceOnUse">
<stop stop-color="#0357D1"/>
<stop offset="1" stop-color="#27CDFC"/>
</linearGradient>
</defs>
</svg>
