<svg width="22" height="22" viewBox="0 0 22 22" fill="none" xmlns="http://www.w3.org/2000/svg">
<path d="M16.8724 3.19696V2.27734C16.8724 1.94686 16.7411 1.62991 16.5074 1.39622C16.2737 1.16253 15.9568 1.03125 15.6263 1.03125C15.2958 1.03125 14.9789 1.16253 14.7452 1.39622C14.5115 1.62991 14.3802 1.94686 14.3802 2.27734V2.69271H12.3034V2.27734C12.3034 1.94686 12.1721 1.62991 11.9384 1.39622C11.7047 1.16253 11.3878 1.03125 11.0573 1.03125C10.7268 1.03125 10.4098 1.16253 10.1762 1.39622C9.94249 1.62991 9.81121 1.94686 9.81121 2.27734V2.69271H7.73438V2.27734C7.73438 1.94686 7.6031 1.62991 7.36942 1.39622C7.1357 1.16253 6.81876 1.03125 6.48828 1.03125C6.1578 1.03125 5.84086 1.16253 5.60715 1.39622C5.37347 1.62991 5.24219 1.94686 5.24219 2.27734V3.19696C4.49281 3.57937 3.86358 4.16127 3.42384 4.87847C2.9841 5.5957 2.75091 6.42042 2.75 7.26172V16.3997C2.75132 17.6111 3.23312 18.7725 4.0897 19.6291C4.94625 20.4856 6.10765 20.9674 7.31902 20.9688H14.7956C16.0069 20.9672 17.1681 20.4853 18.0246 19.6288C18.8812 18.7723 19.3631 17.611 19.3646 16.3997V7.26172C19.3637 6.42042 19.1305 5.5957 18.6908 4.87847C18.251 4.16127 17.6218 3.57937 16.8724 3.19696ZM16.8724 16.3997C16.8724 16.9506 16.6536 17.4788 16.2641 17.8683C15.8746 18.2578 15.3464 18.4766 14.7956 18.4766H7.31902C6.7682 18.4766 6.23996 18.2578 5.85049 17.8683C5.46098 17.4788 5.24219 16.9506 5.24219 16.3997V7.26172C5.24219 6.71093 5.46098 6.18265 5.85049 5.79318C6.23996 5.40372 6.7682 5.18488 7.31902 5.18488H14.7956C15.3464 5.18488 15.8746 5.40372 16.2641 5.79318C16.6536 6.18265 16.8724 6.71093 16.8724 7.26172V16.3997ZM15.2109 8.09246C15.2109 8.42294 15.0797 8.73988 14.846 8.97356C14.6123 9.20724 14.2953 9.33855 13.9648 9.33855H8.14973C7.81925 9.33855 7.50231 9.20724 7.26863 8.97356C7.03495 8.73988 6.90363 8.42294 6.90363 8.09246C6.90363 7.76198 7.03495 7.44501 7.26863 7.21132C7.50231 6.97764 7.81925 6.84637 8.14973 6.84637H13.9648C14.2953 6.84637 14.6123 6.97764 14.846 7.21132C15.0797 7.44501 15.2109 7.76198 15.2109 8.09246ZM12.3034 12.2461C12.3034 12.5766 12.1721 12.8935 11.9384 13.1272C11.7047 13.3609 11.3878 13.4922 11.0573 13.4922H8.14973C7.81925 13.4922 7.50231 13.3609 7.26863 13.1272C7.03495 12.8935 6.90363 12.5766 6.90363 12.2461C6.90363 11.9156 7.03495 11.5987 7.26863 11.365C7.50231 11.1313 7.81925 11 8.14973 11H11.0573C11.3878 11 11.7047 11.1313 11.9384 11.365C12.1721 11.5987 12.3034 11.9156 12.3034 12.2461Z" fill="url(#paint0_linear_451_3052)"/>
<defs>
<linearGradient id="paint0_linear_451_3052" x1="10.3348" y1="20.4333" x2="13.0197" y2="2.53889" gradientUnits="userSpaceOnUse">
<stop stop-color="#8D01A2"/>
<stop offset="1" stop-color="#FF33DB"/>
</linearGradient>
</defs>
</svg>
