<svg width="22" height="22" viewBox="0 0 22 22" fill="none" xmlns="http://www.w3.org/2000/svg">
<path d="M15.5833 12.2032V7.44758C15.586 6.76239 15.4527 6.08341 15.1911 5.45009C14.9295 4.81676 14.5448 4.24163 14.0593 3.75801L13.1971 2.89899C12.7135 2.41352 12.1384 2.02885 11.505 1.76725C10.8717 1.50566 10.1928 1.37235 9.50754 1.37504H7.16145C5.99184 1.37631 4.87053 1.8415 4.0435 2.66853C3.21646 3.49556 2.75128 4.61691 2.75 5.78648V12.2032C2.75128 13.3727 3.21646 14.4941 4.0435 15.3211C4.87053 16.1481 5.99184 16.6133 7.16145 16.6146H11.1718C12.3415 16.6133 13.4628 16.1481 14.2898 15.3211C15.1169 14.4941 15.582 13.3727 15.5833 12.2032ZM5.15625 12.2032V5.78648C5.15625 5.25466 5.36752 4.74464 5.74355 4.36858C6.11961 3.99255 6.62963 3.78128 7.16145 3.78128H9.51074C9.66439 3.78369 9.81757 3.79871 9.96875 3.82621V5.38546C9.96875 5.81089 10.1377 6.21892 10.4386 6.51977C10.7394 6.82062 11.1474 6.98961 11.5729 6.98961H13.1321C13.1596 7.14079 13.1746 7.29396 13.1771 7.44758V12.2032C13.1771 12.7349 12.9658 13.245 12.5897 13.621C12.2137 13.9971 11.7037 14.2084 11.1718 14.2084H7.16145C6.62963 14.2084 6.11961 13.9971 5.74355 13.621C5.36752 13.245 5.15625 12.7349 5.15625 12.2032ZM19.5937 8.19273V16.2136C19.5924 17.3832 19.1272 18.5045 18.3002 19.3315C17.4732 20.1585 16.3519 20.6237 15.1823 20.625H8.76562C8.44652 20.625 8.14052 20.4982 7.91488 20.2726C7.68924 20.047 7.5625 19.741 7.5625 19.4219C7.5625 19.1028 7.68924 18.7968 7.91488 18.5711C8.14052 18.3455 8.44652 18.2187 8.76562 18.2187H15.1823C15.7141 18.2187 16.2241 18.0075 16.6002 17.6315C16.9762 17.2554 17.1875 16.7454 17.1875 16.2136V8.19273C17.1875 7.87366 17.3142 7.56762 17.5398 7.34198C17.7655 7.11638 18.0715 6.98961 18.3906 6.98961C18.7097 6.98961 19.0157 7.11638 19.2413 7.34198C19.4669 7.56762 19.5937 7.87366 19.5937 8.19273Z" fill="url(#paint0_linear_451_3107)"/>
<defs>
<linearGradient id="paint0_linear_451_3107" x1="2.75" y1="20.625" x2="23.8642" y2="12.5726" gradientUnits="userSpaceOnUse">
<stop stop-color="#0357D1"/>
<stop offset="1" stop-color="#27CDFC"/>
</linearGradient>
</defs>
</svg>
