<svg width="22" height="22" viewBox="0 0 22 22" fill="none" xmlns="http://www.w3.org/2000/svg">
<path d="M19.0652 3.85423L17.1145 1.90358C16.7761 1.56514 16.317 1.375 15.8384 1.375H9.36719C8.37048 1.375 7.5625 2.18298 7.5625 3.17969V4.29688C7.5625 4.67658 7.25471 4.98438 6.875 4.98438H4.55469C3.55798 4.98438 2.75 5.79236 2.75 6.78906V18.8203C2.75 19.817 3.55798 20.625 4.55469 20.625H12.9766C13.9733 20.625 14.7812 19.817 14.7812 18.8203V17.7031C14.7812 17.3234 15.089 17.0156 15.4688 17.0156H17.7891C18.7858 17.0156 19.5938 16.2076 19.5938 15.2109V5.1303C19.5938 4.65169 19.4036 4.19268 19.0652 3.85423ZM12.751 18.8203H4.78026C4.72044 18.8203 4.66304 18.7965 4.62079 18.7542C4.57847 18.712 4.55469 18.6546 4.55469 18.5947V7.01463C4.55469 6.95482 4.57847 6.89741 4.62079 6.85517C4.66304 6.81285 4.72044 6.78906 4.78026 6.78906H6.875C7.25471 6.78906 7.5625 7.09686 7.5625 7.47656V15.2109C7.5625 16.2076 8.37048 17.0156 9.36719 17.0156H12.2891C12.6688 17.0156 12.9766 17.3234 12.9766 17.7031V18.5947C12.9766 18.6546 12.9528 18.712 12.9105 18.7542C12.8682 18.7965 12.8108 18.8203 12.751 18.8203ZM17.5635 15.2109H9.59276C9.53294 15.2109 9.47554 15.1872 9.43329 15.1448C9.39098 15.1026 9.36719 15.0452 9.36719 14.9853V3.40527C9.36719 3.34544 9.39098 3.28805 9.43329 3.24578C9.47554 3.20347 9.53294 3.17969 9.59276 3.17969H12.8906C13.2703 3.17969 13.5781 3.48748 13.5781 3.86719V6.48828C13.5781 6.98665 13.9821 7.39062 14.4805 7.39062H17.1016C17.4813 7.39062 17.7891 7.69842 17.7891 8.07812V14.9853C17.7891 15.0452 17.7653 15.1026 17.723 15.1448C17.6807 15.1872 17.6233 15.2109 17.5635 15.2109ZM17.7891 5.2238C17.7891 5.42379 17.6269 5.58594 17.4269 5.58594H16.0703C15.6906 5.58594 15.3828 5.27814 15.3828 4.89844V3.54183C15.3828 3.34182 15.545 3.17969 15.745 3.17969C15.8048 3.17969 15.8621 3.20343 15.9045 3.24574L17.723 5.06426C17.7439 5.08523 17.7605 5.11012 17.7719 5.13745C17.7833 5.16484 17.7891 5.19417 17.7891 5.2238Z" fill="url(#paint0_linear_451_3109)" stroke="url(#paint1_linear_451_3109)" stroke-width="0.6"/>
<defs>
<linearGradient id="paint0_linear_451_3109" x1="11.1719" y1="20.625" x2="11.1719" y2="1.375" gradientUnits="userSpaceOnUse">
<stop stop-color="#5570FF"/>
<stop offset="1" stop-color="#4DD3FF"/>
</linearGradient>
<linearGradient id="paint1_linear_451_3109" x1="11.1719" y1="20.625" x2="11.1719" y2="1.375" gradientUnits="userSpaceOnUse">
<stop stop-color="#5570FF"/>
<stop offset="1" stop-color="#4DD3FF"/>
</linearGradient>
</defs>
</svg>
