<svg width="22" height="22" viewBox="0 0 22 22" fill="none" xmlns="http://www.w3.org/2000/svg">
<path fill-rule="evenodd" clip-rule="evenodd" d="M6.47371 14.1005C5.45456 12.7689 4.8742 11.1539 4.8125 9.47849V9.47732C4.82494 6.13009 7.54796 3.42616 10.8954 3.43753C14.2436 3.44891 16.9485 6.17234 16.9372 9.52046L16.9371 9.52455V9.59499C16.892 11.7712 15.6618 13.9022 13.979 15.6792C13.0443 16.6493 12.0031 17.5107 10.8752 18.2471C9.1829 17.1324 7.69625 15.733 6.48134 14.1106L6.47371 14.1005ZM10.9036 1.0313C6.22655 1.01541 2.42215 4.79404 2.40626 9.4711L2.40625 9.47519V9.49987C2.40625 9.51366 2.40649 9.52741 2.40696 9.54119C2.48187 11.7217 3.23409 13.8246 4.55902 15.5579C5.94835 17.412 7.64985 19.0099 9.58719 20.28C10.3413 20.8734 11.4057 20.874 12.1603 20.2817C13.4531 19.441 14.6459 18.4557 15.7157 17.3448L15.7223 17.3378C17.6061 15.3499 19.2857 12.6648 19.3432 9.6296L19.3434 9.61589L19.3434 9.60685V9.52665C19.3582 4.85048 15.58 1.04719 10.9036 1.0313ZM9.62514 10.9658C9.62514 10.3443 10.129 9.84039 10.7506 9.84039C11.3721 9.84039 11.876 10.3443 11.876 10.9658C11.876 11.5874 11.3721 12.0913 10.7506 12.0913C10.129 12.0913 9.62514 11.5874 9.62514 10.9658ZM10.7506 7.43414C8.8001 7.43414 7.21889 9.01532 7.21889 10.9658C7.21889 12.9163 8.8001 14.4975 10.7506 14.4975C12.7011 14.4975 14.2823 12.9163 14.2823 10.9658C14.2823 9.01532 12.7011 7.43414 10.7506 7.43414Z" fill="url(#paint0_linear_451_2731)"/>
<defs>
<linearGradient id="paint0_linear_451_2731" x1="2.16143" y1="1.22504" x2="22.3267" y2="19.0979" gradientUnits="userSpaceOnUse">
<stop stop-color="#F9D423"/>
<stop offset="0.515624" stop-color="#FF4E50"/>
<stop offset="0.991304" stop-color="#8A2387"/>
</linearGradient>
</defs>
</svg>
