<svg width="22" height="22" viewBox="0 0 22 22" fill="none" xmlns="http://www.w3.org/2000/svg">
<path d="M11.3367 1C8.74427 1 7.14013 2.46418 6.90926 4.24349C6.90926 4.75623 6.34462 5.06825 5.9105 4.79543L4.46508 3.88705C4.24749 3.7503 3.96927 3.7567 3.7582 3.90329C3.39099 4.15833 3.39099 4.70143 3.7582 4.95647L6.31878 6.73485L7.03288 7.23081C7.26869 7.39457 7.58143 7.39457 7.81724 7.23081L8.53128 6.73485L11.104 4.94802C11.4654 4.69707 11.4654 4.16268 11.104 3.91173C10.8875 3.76133 10.6002 3.76145 10.3839 3.91204L9.18056 4.74935C8.77191 5.03367 8.21228 4.74129 8.21228 4.24349C8.21228 3.04345 9.59952 2.15923 11.3365 2.15881C13.0733 2.15923 14.7519 3.04364 14.7276 4.24349V4.53405C14.7276 4.89389 15.0193 5.18559 15.3791 5.18559C15.739 5.18559 16.0307 4.89388 16.0307 4.53405V4.2431C16.0307 2.45199 13.9291 1 11.3367 1ZM14.7276 6.34437C13.2883 6.34437 12.1215 7.38199 12.1215 8.66191C12.1215 9.94197 13.2883 10.9795 14.7276 10.9795C16.1669 10.9795 17.3338 9.94197 17.3338 8.66191C17.3338 7.38199 16.1669 6.34437 14.7276 6.34437ZM6.90926 8.66191C6.56703 8.66191 6.22811 8.72186 5.91185 8.83839C5.5957 8.95479 5.30836 9.12563 5.06643 9.34082C4.82438 9.55601 4.63241 9.81141 4.50144 10.0927C4.37048 10.3739 4.30307 10.6753 4.30307 10.9795C4.30307 11.2839 4.37048 11.5853 4.50144 11.8666C4.63241 12.1477 4.82438 12.4031 5.06643 12.6184C5.30836 12.8336 5.5957 13.0043 5.91185 13.1208C6.22811 13.2372 6.56703 13.2972 6.90926 13.2972C7.2515 13.2972 7.59037 13.2372 7.90655 13.1208C8.22266 13.0043 8.50997 12.8336 8.75204 12.6184C8.99404 12.4031 9.18606 12.1477 9.31703 11.8666C9.44799 11.5853 9.51537 11.2839 9.51537 10.9795C9.51537 10.6753 9.44799 10.3739 9.31703 10.0927C9.18606 9.81141 8.99404 9.55601 8.75204 9.34082C8.50997 9.12563 8.22266 8.95479 7.90655 8.83839C7.59037 8.72186 7.2515 8.66191 6.90926 8.66191ZM14.748 12.1384C12.8997 12.1384 11.3619 13.314 10.9395 14.8936C10.8828 15.1053 10.9598 15.325 11.1068 15.4875C11.5819 16.0131 11.9231 16.5601 12.0579 17.2487C12.1308 17.6214 12.4293 17.9324 12.809 17.9324H14.748H17.1098H17.5678C17.774 17.9324 17.9727 17.842 18.0884 17.6713C18.4762 17.0995 18.6844 16.4375 18.6852 15.7596C18.6852 13.7597 16.9232 12.1384 14.748 12.1384ZM14.6844 13.2972C16.121 13.2972 17.2854 14.2699 17.2854 15.4699C17.2849 15.8438 17.1694 16.2095 16.9521 16.5326C16.8433 16.6943 16.6524 16.7737 16.4575 16.7737H16.2445H14.6844H13.1217C13.1025 16.7737 13.0862 16.76 13.0826 16.7412C12.9881 16.2518 12.7447 15.8041 12.3983 15.4238C12.2364 15.246 12.1384 15.0044 12.2274 14.7811C12.5708 13.9192 13.5366 13.2972 14.6844 13.2972ZM6.90926 14.456C6.39584 14.456 5.88754 14.5497 5.41326 14.7316C4.93893 14.9136 4.50798 15.1804 4.14498 15.5166C3.78198 15.853 3.49402 16.2521 3.29757 16.6915C3.10111 17.1308 3 17.6016 3 18.0772C3.00178 18.755 3.20882 19.4166 3.59425 19.9879C3.70987 20.1592 3.90892 20.25 4.11561 20.25H4.56267H6.90926H9.25577H9.70697C9.91419 20.25 10.1137 20.1587 10.2291 19.9866C10.6126 19.4152 10.8178 18.7542 10.8183 18.0772C10.8183 17.6016 10.7173 17.1308 10.5208 16.6915C10.3244 16.2521 10.0364 15.853 9.67349 15.5166C9.31042 15.1804 8.8795 14.9136 8.40519 14.7316C7.93096 14.5497 7.42248 14.456 6.90926 14.456ZM6.90926 15.6148C7.60041 15.6148 8.26323 15.8895 8.75204 16.3785C9.24078 16.8674 9.51537 17.5306 9.51537 18.2221C9.51482 18.3566 9.50382 18.4907 9.48271 18.623C9.43693 18.9097 9.16894 19.0912 8.87861 19.0912H4.93982C4.64949 19.0912 4.38144 18.9097 4.33567 18.623C4.31454 18.4907 4.3036 18.3566 4.30307 18.2221C4.30307 17.5306 4.57765 16.8674 5.06643 16.3785C5.55511 15.8895 6.21802 15.6148 6.90926 15.6148Z" fill="url(#paint0_linear_451_2426)" stroke="url(#paint1_linear_451_2426)" stroke-width="0.6"/>
<defs>
<linearGradient id="paint0_linear_451_2426" x1="10.8426" y1="20.25" x2="10.8426" y2="1" gradientUnits="userSpaceOnUse">
<stop stop-color="#FD2E00"/>
<stop offset="1" stop-color="#FF9900"/>
</linearGradient>
<linearGradient id="paint1_linear_451_2426" x1="10.8426" y1="20.25" x2="10.8426" y2="1" gradientUnits="userSpaceOnUse">
<stop stop-color="#FD2E00"/>
<stop offset="1" stop-color="#FF9900"/>
</linearGradient>
</defs>
</svg>
