<svg width="22" height="22" viewBox="0 0 22 22" fill="none" xmlns="http://www.w3.org/2000/svg">
<path fill-rule="evenodd" clip-rule="evenodd" d="M9.74823 14.5607C9.97384 14.3351 10.2799 14.2083 10.5989 14.2083C10.918 14.2083 11.2241 14.3351 11.4497 14.5607C11.6753 14.7863 11.8021 15.0924 11.8021 15.4114V16.0531C11.8008 17.2653 11.3187 18.4274 10.4616 19.2845C9.60448 20.1417 8.44236 20.6237 7.2302 20.625H5.94687C4.73474 20.6237 3.57259 20.1417 2.71548 19.2845C1.85836 18.4274 1.37628 17.2653 1.375 16.0531V5.94687C1.37628 4.73474 1.85836 3.57259 2.71548 2.71548C3.57259 1.85836 4.73474 1.37628 5.94687 1.375H7.2302C8.44236 1.37628 9.60448 1.85836 10.4616 2.71548C11.3187 3.57259 11.8008 4.73474 11.8021 5.94687V6.58855C11.8021 6.90762 11.6753 7.21366 11.4497 7.43927C11.2241 7.6649 10.918 7.79168 10.5989 7.79168C10.2799 7.79168 9.97384 7.6649 9.74823 7.43927C9.5226 7.21366 9.39582 6.90762 9.39582 6.58855V5.94687C9.39582 5.3725 9.16768 4.82168 8.76153 4.41554C8.35539 4.0094 7.80457 3.78125 7.2302 3.78125H5.94687C5.3725 3.78125 4.82168 4.0094 4.41554 4.41554C4.0094 4.82168 3.78125 5.3725 3.78125 5.94687V16.0531C3.78125 16.6275 4.0094 17.1783 4.41554 17.5845C4.82168 17.9906 5.3725 18.2188 5.94687 18.2188H7.2302C7.80457 18.2188 8.35539 17.9906 8.76153 17.5845C9.16768 17.1783 9.39582 16.6275 9.39582 16.0531V15.4114C9.39582 15.0924 9.5226 14.7863 9.74823 14.5607ZM15.7927 5.33576L19.471 9.01412C19.9962 9.54143 20.2909 10.2555 20.2905 10.9998C20.2901 11.744 19.9945 12.4577 19.4686 12.9844L15.7903 16.6628C15.5646 16.8884 15.2585 17.0151 14.9394 17.015C14.6203 17.0149 14.3142 16.8881 14.0887 16.6624C13.8631 16.4367 13.7364 16.1306 13.7364 15.8115C13.7365 15.4924 13.8633 15.1864 14.089 14.9608L16.2812 12.7686C16.498 12.5518 16.3439 12.1811 16.0373 12.1818L6.98981 12.2024C6.67071 12.2024 6.3647 12.0756 6.13907 11.85C5.91343 11.6244 5.78669 11.3183 5.78669 10.9993C5.78669 10.6802 5.91343 10.3742 6.13907 10.1485C6.3647 9.92289 6.67071 9.79615 6.98981 9.79615L16.0002 9.77556C16.306 9.77487 16.4587 9.40503 16.2424 9.18875L14.0914 7.03777C13.9797 6.92608 13.891 6.79346 13.8305 6.64747C13.77 6.50152 13.7389 6.34504 13.7388 6.18705C13.7388 5.86792 13.8655 5.56184 14.0911 5.33617C14.2028 5.22438 14.3354 5.13573 14.4814 5.07523C14.6273 5.01473 14.7838 4.98358 14.9418 4.98355C15.0998 4.98352 15.2562 5.01459 15.4023 5.07502C15.5483 5.13545 15.6809 5.22404 15.7927 5.33576Z" fill="url(#paint0_linear_451_2452)"/>
<defs>
<linearGradient id="paint0_linear_451_2452" x1="1.10159" y1="1.56442" x2="20.9541" y2="21.6688" gradientUnits="userSpaceOnUse">
<stop stop-color="#F9D423"/>
<stop offset="0.515624" stop-color="#FF4E50"/>
<stop offset="0.991304" stop-color="#8A2387"/>
</linearGradient>
</defs>
</svg>
