<svg width="22" height="22" viewBox="0 0 22 22" fill="none" xmlns="http://www.w3.org/2000/svg">
<path fill-rule="evenodd" clip-rule="evenodd" d="M3.69969 3H18.3003C19.7914 3 21 4.20869 21 5.6997V16.5704C21 18.0614 19.7914 19.27 18.3003 19.27H3.69969C2.20869 19.27 1 18.0614 1 16.5704V5.6997C1 4.20869 2.2087 3 3.69969 3ZM3.69969 5.02477C3.32695 5.02477 3.02477 5.32696 3.02477 5.6997V16.5704C3.02477 16.9432 3.32695 17.2453 3.69969 17.2453H18.3003C18.6732 17.2453 18.9752 16.9432 18.9752 16.5704V5.6997C18.9752 5.32696 18.6732 5.02477 18.3003 5.02477H3.69969Z" fill="url(#paint0_linear_451_2358)"/>
<path d="M5.26878 6.97355C5.68973 6.80611 6.23752 6.92642 6.5 7.22281C7.65769 8.39402 8.80904 9.57007 9.96421 10.7432C10.072 10.8732 10.2584 11.0002 10.2165 11.1705C10.1012 11.3428 9.94139 11.4939 9.79178 11.6498C8.70382 12.7508 7.62347 13.8556 6.5393 14.9594C6.35417 15.1558 6.07143 15.3213 5.74047 15.3271C4.90993 15.3713 4.40652 14.5225 4.99995 14.0779C5.90278 13.1549 6.817 12.2388 7.71095 11.312C7.88213 11.1763 7.81873 10.9732 7.66908 10.8452C6.76626 9.92616 5.85965 9.00898 4.96065 8.08798C4.57898 7.74829 4.72605 7.1622 5.26878 6.97355Z" fill="url(#paint1_linear_451_2358)"/>
<path d="M10.6212 13.5137C10.8159 13.4207 11.037 13.4429 11.2448 13.4346C13.0436 13.4415 14.8436 13.4304 16.6423 13.4387C17.0883 13.4013 17.5134 13.7966 17.52 14.2711C17.5568 14.7733 17.1108 15.2338 16.6331 15.1673C14.7501 15.1673 12.8659 15.1714 10.983 15.1659C10.5304 15.213 10.1093 14.7552 10.1317 14.285C10.1343 13.9562 10.3317 13.6385 10.6212 13.5137Z" fill="url(#paint2_linear_451_2358)"/>
<defs>
<linearGradient id="paint0_linear_451_2358" x1="1.28969" y1="18.5855" x2="9.36048" y2="14.6268" gradientUnits="userSpaceOnUse">
<stop stop-color="#F35C58"/>
<stop offset="1" stop-color="#B118F0"/>
</linearGradient>
<linearGradient id="paint1_linear_451_2358" x1="9.26617" y1="10.6422" x2="5.75543" y2="13.2948" gradientUnits="userSpaceOnUse">
<stop stop-color="#FD2E00"/>
<stop offset="1" stop-color="#FF9900"/>
</linearGradient>
<linearGradient id="paint2_linear_451_2358" x1="15.474" y1="13.8844" x2="9.52119" y2="14.4127" gradientUnits="userSpaceOnUse">
<stop stop-color="#FD2E00"/>
<stop offset="1" stop-color="#FF9900"/>
</linearGradient>
</defs>
</svg>
