<svg width="22" height="22" viewBox="0 0 22 22" fill="none" xmlns="http://www.w3.org/2000/svg">
<path d="M3.66667 1.375C3.28697 1.375 2.97917 1.68281 2.97917 2.0625V2.64049C2.97917 2.93175 2.79003 3.18336 2.54026 3.33318C1.84256 3.7517 1.375 4.50913 1.375 5.38542C1.375 6.26171 1.84256 7.01914 2.54026 7.43765C2.79003 7.58747 2.97917 7.83908 2.97917 8.13033V19.9375C2.97917 20.3171 3.28697 20.625 3.66667 20.625H3.89583C4.27553 20.625 4.58333 20.3171 4.58333 19.9375V8.13079C4.58333 7.83932 4.77276 7.58758 5.02279 7.43777C5.72076 7.01958 6.1875 6.26223 6.1875 5.38542C6.1875 4.5086 5.72076 3.75125 5.02279 3.33306C4.77276 3.18325 4.58333 2.93151 4.58333 2.64004V2.0625C4.58333 1.68281 4.27553 1.375 3.89583 1.375H3.66667ZM10.8854 1.375C10.5057 1.375 10.1979 1.68281 10.1979 2.0625V13.8696C10.1979 14.1608 10.0088 14.4125 9.75901 14.5624C9.0613 14.9809 8.59375 15.7382 8.59375 16.6145C8.59375 17.4908 9.0613 18.2483 9.75901 18.6669C10.0088 18.8166 10.1979 19.0682 10.1979 19.3595V19.9375C10.1979 20.3171 10.5057 20.625 10.8854 20.625H11.1146C11.4943 20.625 11.8021 20.3171 11.8021 19.9375V19.3595C11.8021 19.0682 11.9912 18.8166 12.241 18.6669C12.9387 18.2483 13.4062 17.4908 13.4062 16.6145C13.4062 15.7382 12.9387 14.9809 12.241 14.5624C11.9912 14.4125 11.8021 14.1608 11.8021 13.8696V2.0625C11.8021 1.68281 11.4943 1.375 11.1146 1.375H10.8854ZM18.1042 1.375C17.7244 1.375 17.4167 1.68281 17.4167 2.0625V7.453C17.4167 7.74425 17.2275 7.99586 16.9778 8.14568C16.28 8.5642 15.8125 9.32162 15.8125 10.1979C15.8125 11.0742 16.28 11.8316 16.9778 12.2501C17.2275 12.4 17.4167 12.6516 17.4167 12.9428V19.9375C17.4167 20.3171 17.7244 20.625 18.1042 20.625H18.3333C18.7131 20.625 19.0208 20.3171 19.0208 19.9375V12.9428C19.0208 12.6516 19.21 12.4 19.4597 12.2501C20.1575 11.8316 20.625 11.0742 20.625 10.1979C20.625 9.32162 20.1575 8.5642 19.4597 8.14568C19.21 7.99586 19.0208 7.74425 19.0208 7.453V2.0625C19.0208 1.68281 18.7131 1.375 18.3333 1.375H18.1042Z" fill="url(#paint0_linear_451_2268)"/>
<defs>
<linearGradient id="paint0_linear_451_2268" x1="11.0278" y1="16.7317" x2="12.6682" y2="2.76277" gradientUnits="userSpaceOnUse">
<stop stop-color="#B400CF"/>
<stop offset="1" stop-color="#339DFF"/>
</linearGradient>
</defs>
</svg>
