<svg width="22" height="22" viewBox="0 0 22 22" fill="none" xmlns="http://www.w3.org/2000/svg">
<g clip-path="url(#clip0_451_2104)">
<path d="M9.9163 14.0605L10.6028 14.187L9.9163 14.0595V14.0605ZM7.15907 14.706L6.47442 14.5767L7.16 14.707L7.15907 14.706ZM2.39535 11C2.39535 8.71791 3.30191 6.52927 4.91559 4.91559C6.52927 3.30191 8.71791 2.39535 11 2.39535V1C5.47628 1 1 5.47628 1 11H2.39535ZM6.07814 18.0484C3.85116 16.4902 2.39535 13.9181 2.39535 11H1C1 14.3953 2.69767 17.386 5.27907 19.1916L6.07814 18.0484ZM6.47442 14.5767L5.80372 18.1395L7.17488 18.3981L7.84465 14.8353L6.47442 14.5767ZM5.18605 11C5.18605 12.3898 5.67628 13.6651 6.4893 14.6633L7.57023 13.7823C6.92882 12.9971 6.57938 12.0139 6.5814 11H5.18605ZM11 5.18605C9.458 5.18605 7.97924 5.79859 6.88891 6.88891C5.79859 7.97924 5.18605 9.458 5.18605 11H6.5814C6.5814 9.8281 7.04693 8.70422 7.87557 7.87557C8.70422 7.04693 9.8281 6.5814 11 6.5814V5.18605ZM16.814 11C16.814 9.458 16.2014 7.97924 15.1111 6.88891C14.0207 5.79859 12.542 5.18605 11 5.18605V6.5814C12.1719 6.5814 13.2958 7.04693 14.1245 7.87557C14.9531 8.70422 15.4186 9.8281 15.4186 11H16.814ZM15.5116 14.6633C16.3557 13.6292 16.8159 12.3349 16.814 11H15.4186C15.4204 12.0136 15.071 12.9965 14.4298 13.7814L15.5116 14.6633ZM16.1963 18.1395L15.5256 14.5767L14.1544 14.8353L14.8242 18.3981L16.1963 18.1395ZM19.6047 11C19.6047 13.9181 18.1488 16.4902 15.9219 18.0484L16.7219 19.1926C19.3033 17.3851 21 14.3953 21 11H19.6047ZM11 2.39535C13.2821 2.39535 15.4707 3.30191 17.0844 4.91559C18.698 6.52927 19.6047 8.71791 19.6047 11H21C21 5.47628 16.5237 1 11 1V2.39535ZM14.4884 11C14.4884 10.0748 14.1208 9.1875 13.4667 8.53335C12.8125 7.87915 11.9252 7.51163 11 7.51163V8.90698C11.5551 8.90698 12.0874 9.1275 12.48 9.52C12.8725 9.9126 13.093 10.4449 13.093 11H14.4884ZM12.7721 14.0028C13.2949 13.6951 13.7282 13.2561 14.0292 12.7294C14.3302 12.2028 14.4885 11.6066 14.4884 11H13.093C13.093 11.7656 12.6809 12.4363 12.0623 12.8009L12.7721 14.0028ZM13.7795 19.386L12.7702 13.933L11.3981 14.187L12.4074 19.64L13.7795 19.386ZM11 21C11.6186 21 12.2186 20.9377 12.8 20.8298L12.5442 19.4586C12.0351 19.5548 11.5181 19.6036 11 19.6047V21ZM9.1981 20.8288C9.7795 20.9377 10.3805 21 11 21V19.6047C10.4818 19.6034 9.9648 19.554 9.4558 19.4567L9.1981 20.8288ZM9.2307 13.933L8.2214 19.3851L9.5935 19.6391L10.6028 14.187L9.2307 13.933ZM7.51163 11C7.51163 12.2809 8.20372 13.3981 9.2288 14.0028L9.9377 12.8009C9.6238 12.6166 9.3636 12.3534 9.1828 12.0375C9.002 11.7217 8.90694 11.364 8.90698 11H7.51163ZM11 7.51163C10.0748 7.51163 9.1875 7.87915 8.53335 8.53335C7.87915 9.1875 7.51163 10.0748 7.51163 11H8.90698C8.90698 10.4449 9.1275 9.9126 9.52 9.52C9.9126 9.1275 10.4449 8.90698 11 8.90698V7.51163ZM10.6028 14.187C10.7163 13.5712 10.3619 13.0521 9.9377 12.8009L9.2288 14.0028C9.2322 14.0049 9.2353 14.0073 9.2381 14.0102C9.24 14.0139 9.2409 14.013 9.2381 14.0102C9.2339 14.0014 9.2311 13.9911 9.2298 13.9814C9.227 13.9654 9.2279 13.949 9.2307 13.933L10.6028 14.187ZM9.4558 19.4567C9.5665 19.4781 9.6047 19.5767 9.5935 19.6391L8.2214 19.3851C8.1014 20.0307 8.50512 20.6986 9.1981 20.8288L9.4558 19.4567ZM14.8242 18.3981C14.9805 19.2279 15.9526 19.7302 16.7228 19.1916L15.9219 18.0484C15.9486 18.0306 15.9803 18.0197 16.0122 18.0166C16.0442 18.0135 16.0764 18.0183 16.106 18.0307C16.1544 18.0521 16.1879 18.0958 16.1963 18.1395L14.8242 18.3981ZM7.84465 14.8353C7.91907 14.4419 7.79814 14.0614 7.57023 13.7823L6.4893 14.6633C6.48279 14.6558 6.46512 14.626 6.47442 14.5767L7.84465 14.8353ZM12.0623 12.8009C11.6381 13.0521 11.2837 13.5712 11.3981 14.187L12.7702 13.933C12.7731 13.9493 12.7731 13.966 12.7702 13.9823C12.7688 13.9917 12.766 14.0007 12.7619 14.0093C12.7591 14.0121 12.76 14.013 12.7619 14.0093C12.7647 14.0064 12.7687 14.0048 12.7721 14.0028L12.0623 12.8009ZM14.4298 13.7814C14.2019 14.0605 14.0809 14.4419 14.1544 14.8353L15.5256 14.5767C15.5349 14.627 15.5181 14.6558 15.5116 14.6633L14.4298 13.7814ZM12.4074 19.64C12.4019 19.5979 12.413 19.5553 12.4386 19.5213C12.4643 19.4873 12.5021 19.4648 12.5442 19.4586L12.8 20.8298C13.493 20.7005 13.8986 20.0326 13.7795 19.386L12.4074 19.64ZM5.27907 19.1916C6.04837 19.7302 7.01767 19.227 7.17488 18.3981L5.80372 18.1395C5.80887 18.1153 5.81976 18.0937 5.83546 18.0746C5.85116 18.0554 5.87123 18.0405 5.89395 18.0307C5.9238 18.0183 5.95624 18.0136 5.98839 18.0168C6.02053 18.02 6.05137 18.0303 6.07814 18.0484L5.27907 19.1916Z" fill="url(#paint0_linear_451_2104)"/>
<path d="M10.6028 14.187L9.9163 14.0605V14.0595L10.6028 14.187ZM10.6028 14.187L9.5935 19.6391M10.6028 14.187L9.2307 13.933M10.6028 14.187C10.7163 13.5712 10.3619 13.0521 9.9377 12.8009M15.5107 18.2688L16.1963 18.1395M16.1963 18.1395L15.5256 14.5767M16.1963 18.1395L14.8242 18.3981M16.1963 18.1395C16.1879 18.0958 16.1544 18.0521 16.106 18.0307C16.0764 18.0183 16.0442 18.0135 16.0122 18.0166C15.9803 18.0197 15.9486 18.0306 15.9219 18.0484M6.47442 14.5767L7.15907 14.706L7.16 14.707L6.47442 14.5767ZM6.47442 14.5767L5.80372 18.1395M6.47442 14.5767L7.84465 14.8353M6.47442 14.5767C6.46512 14.626 6.48279 14.6558 6.4893 14.6633M2.39535 11C2.39535 8.71791 3.30191 6.52927 4.91559 4.91559C6.52927 3.30191 8.71791 2.39535 11 2.39535M2.39535 11H1M2.39535 11C2.39535 13.9181 3.85116 16.4902 6.07814 18.0484M11 2.39535V1M11 2.39535C13.2821 2.39535 15.4707 3.30191 17.0844 4.91559C18.698 6.52927 19.6047 8.71791 19.6047 11M11 1C5.47628 1 1 5.47628 1 11M11 1C16.5237 1 21 5.47628 21 11M1 11C1 14.3953 2.69767 17.386 5.27907 19.1916M6.07814 18.0484L5.27907 19.1916M6.07814 18.0484C6.05137 18.0303 6.02053 18.02 5.98839 18.0168C5.95624 18.0136 5.9238 18.0183 5.89395 18.0307C5.87123 18.0405 5.85116 18.0554 5.83546 18.0746C5.81976 18.0937 5.80887 18.1153 5.80372 18.1395M5.27907 19.1916C6.04837 19.7302 7.01767 19.227 7.17488 18.3981M5.80372 18.1395L7.17488 18.3981M7.17488 18.3981L7.84465 14.8353M7.84465 14.8353C7.91907 14.4419 7.79814 14.0614 7.57023 13.7823M5.18605 11C5.18605 12.3898 5.67628 13.6651 6.4893 14.6633M5.18605 11H6.5814M5.18605 11C5.18605 9.458 5.79859 7.97924 6.88891 6.88891C7.97924 5.79859 9.458 5.18605 11 5.18605M6.4893 14.6633L7.57023 13.7823M7.57023 13.7823C6.92882 12.9971 6.57938 12.0139 6.5814 11M6.5814 11C6.5814 9.8281 7.04693 8.70422 7.87557 7.87557C8.70422 7.04693 9.8281 6.5814 11 6.5814M11 5.18605V6.5814M11 5.18605C12.542 5.18605 14.0207 5.79859 15.1111 6.88891C16.2014 7.97924 16.814 9.458 16.814 11M11 6.5814C12.1719 6.5814 13.2958 7.04693 14.1245 7.87557C14.9531 8.70422 15.4186 9.8281 15.4186 11M16.814 11H15.4186M16.814 11C16.8159 12.3349 16.3557 13.6292 15.5116 14.6633M15.4186 11C15.4204 12.0136 15.071 12.9965 14.4298 13.7814M15.5116 14.6633L14.4298 13.7814M15.5116 14.6633C15.5181 14.6558 15.5349 14.627 15.5256 14.5767M14.4298 13.7814C14.2019 14.0605 14.0809 14.4419 14.1544 14.8353M15.5256 14.5767L14.1544 14.8353M14.1544 14.8353L14.8242 18.3981M14.8242 18.3981C14.9805 19.2279 15.9526 19.7302 16.7228 19.1916L15.9219 18.0484M19.6047 11C19.6047 13.9181 18.1488 16.4902 15.9219 18.0484M19.6047 11H21M15.9219 18.0484L16.7219 19.1926C19.3033 17.3851 21 14.3953 21 11M14.4884 11C14.4884 10.0748 14.1208 9.1875 13.4667 8.53335C12.8125 7.87915 11.9252 7.51163 11 7.51163M14.4884 11H13.093M14.4884 11C14.4885 11.6066 14.3302 12.2028 14.0292 12.7294C13.7282 13.2561 13.2949 13.6951 12.7721 14.0028M11 7.51163V8.90698M11 7.51163C10.0748 7.51163 9.1875 7.87915 8.53335 8.53335C7.87915 9.1875 7.51163 10.0748 7.51163 11M11 8.90698C11.5551 8.90698 12.0874 9.1275 12.48 9.52C12.8725 9.9126 13.093 10.4449 13.093 11M11 8.90698C10.4449 8.90698 9.9126 9.1275 9.52 9.52C9.1275 9.9126 8.90698 10.4449 8.90698 11M13.093 11C13.093 11.7656 12.6809 12.4363 12.0623 12.8009M12.7721 14.0028L12.0623 12.8009M12.7721 14.0028C12.7687 14.0048 12.7647 14.0064 12.7619 14.0093M12.0623 12.8009C11.6381 13.0521 11.2837 13.5712 11.3981 14.187M13.7795 19.386L12.7702 13.933M13.7795 19.386L12.4074 19.64M13.7795 19.386C13.8986 20.0326 13.493 20.7005 12.8 20.8298M12.7702 13.933L11.3981 14.187M12.7702 13.933C12.7731 13.9493 12.7731 13.966 12.7702 13.9823C12.7688 13.9917 12.766 14.0007 12.7619 14.0093M11.3981 14.187L12.4074 19.64M12.4074 19.64C12.4019 19.5979 12.413 19.5553 12.4386 19.5213C12.4643 19.4873 12.5021 19.4648 12.5442 19.4586M11 21C11.6186 21 12.2186 20.9377 12.8 20.8298M11 21V19.6047M11 21C10.3805 21 9.7795 20.9377 9.1981 20.8288M12.8 20.8298L12.5442 19.4586M12.5442 19.4586C12.0351 19.5548 11.5181 19.6036 11 19.6047M11 19.6047C10.4818 19.6034 9.9648 19.554 9.4558 19.4567M9.1981 20.8288L9.4558 19.4567M9.1981 20.8288C8.50512 20.6986 8.1014 20.0307 8.2214 19.3851M9.4558 19.4567C9.5665 19.4781 9.6047 19.5767 9.5935 19.6391M9.2307 13.933L8.2214 19.3851M9.2307 13.933C9.2279 13.949 9.227 13.9654 9.2298 13.9814C9.2311 13.9911 9.2339 14.0014 9.2381 14.0102M8.2214 19.3851L9.5935 19.6391M7.51163 11C7.51163 12.2809 8.20372 13.3981 9.2288 14.0028M7.51163 11H8.90698M9.2288 14.0028L9.9377 12.8009M9.2288 14.0028C9.2322 14.0049 9.2353 14.0073 9.2381 14.0102M9.9377 12.8009C9.6238 12.6166 9.3636 12.3534 9.1828 12.0375C9.002 11.7217 8.90694 11.364 8.90698 11M9.2381 14.0102C9.2409 14.013 9.24 14.0139 9.2381 14.0102ZM12.7619 14.0093C12.76 14.013 12.7591 14.0121 12.7619 14.0093Z" stroke="url(#paint1_linear_451_2104)" stroke-width="0.4"/>
</g>
<defs>
<linearGradient id="paint0_linear_451_2104" x1="11" y1="21" x2="11" y2="1" gradientUnits="userSpaceOnUse">
<stop stop-color="#5570FF"/>
<stop offset="1" stop-color="#4DD3FF"/>
</linearGradient>
<linearGradient id="paint1_linear_451_2104" x1="11" y1="21" x2="11" y2="1" gradientUnits="userSpaceOnUse">
<stop stop-color="#5570FF"/>
<stop offset="1" stop-color="#4DD3FF"/>
</linearGradient>
<clipPath id="clip0_451_2104">
<rect width="22" height="22" fill="white"/>
</clipPath>
</defs>
</svg>
