<svg width="48" height="48" viewBox="0 0 48 48" fill="none" xmlns="http://www.w3.org/2000/svg">
<path d="M6.19242 3.96043C8.12715 3.60219 10.1121 3.82454 12.0703 3.76586C14.0721 3.83072 16.2247 3.4694 18.0555 4.4144C19.95 5.4119 21.1303 7.18763 22.7766 8.46C23.35 8.87693 24.0977 9.02513 24.8152 9.01898C31.8667 9.0282 38.9182 9.00353 45.9697 9.0591C47.3176 8.94488 48.4039 10.3469 47.854 11.4865C47.5389 12.3234 46.5397 12.7094 45.6343 12.6291C39.2535 12.6137 32.876 12.6044 26.4985 12.589C24.775 12.6044 22.9442 12.6847 21.3884 11.888C19.1284 10.8689 18.0019 8.53103 15.8392 7.43778C13.274 7.19999 10.6687 7.39455 8.08687 7.33896C5.84035 7.28646 3.83187 9.1425 3.89893 11.2116C3.89223 19.2349 3.90229 27.255 3.89223 35.2783C3.90564 36.3993 3.7514 37.6068 4.38177 38.6228C5.12615 39.9569 6.75573 40.7629 8.36857 40.6796C18.8971 40.6672 29.4257 40.6827 39.9543 40.6642C42.174 40.6919 44.1556 38.8452 44.0752 36.7946C44.0986 31.7669 44.045 26.7393 44.0953 21.7148C44.0651 20.674 45.185 19.8093 46.2916 19.9822C47.3477 20.0718 48.0955 21.0384 47.9781 21.9896C47.968 27.045 47.9983 32.1004 47.9614 37.159C47.9077 40.8803 44.32 44.1569 40.2862 44.2249C29.9923 44.2743 19.6951 44.2249 9.39795 44.2496C8.0031 44.2527 6.5579 44.2496 5.24015 43.7678C2.69519 42.9124 0.700123 40.7969 0.177048 38.3449C-0.0442535 37.2238 0.0060421 36.0812 0.00268905 34.9509C0.00939517 27.0296 -0.00401698 19.1051 0.00604217 11.1839C-0.077784 7.83 2.6516 4.68616 6.19242 3.96043Z" fill="url(#paint0_linear_451_832)"/>
<path d="M24.3493 18.7038C24.4968 17.6538 26.0861 17.2029 26.8808 17.9472C27.5246 18.4444 27.3302 19.2844 27.4039 19.9607C30.1031 19.482 33.0505 20.9675 33.9926 23.3578C34.6096 25.0069 34.271 26.7795 34.3514 28.4843C34.2878 30.2075 34.7035 32.1624 33.4595 33.6262C31.9506 35.6274 28.5305 35.9331 26.626 34.2469C25.5463 33.4378 25.2479 32.1531 24.973 30.9672C24.6846 30.1395 23.1522 30.1458 22.9041 30.995C22.6493 32.1531 22.3643 33.4008 21.3315 34.2068C19.4538 35.9331 16.0103 35.6737 14.4678 33.6849C13.1032 32.1099 13.6564 30.0037 13.5524 28.1569C13.6363 26.4151 13.2305 24.5529 14.1057 22.9285C15.2055 20.7204 18.0455 19.5407 20.5905 20.007C21.5629 20.2541 21.9686 21.4678 21.3349 22.1904C20.8454 22.8575 19.8863 22.7061 19.1387 22.7895C17.6867 22.7895 16.5132 24.0774 16.6238 25.3836C16.6306 27.3385 16.5836 29.2934 16.6473 31.2483C16.6339 32.5731 18.7933 33.024 19.4606 31.8752C19.8461 30.8838 19.8293 29.7258 20.6777 28.9259C22.2235 27.1131 25.5161 27.0636 27.1256 28.827C27.9773 29.6053 28.0846 30.7387 28.3796 31.7516C28.896 32.8665 30.8508 32.7152 31.1996 31.554C31.3874 30.0284 31.2197 28.4874 31.28 26.9556C31.2566 25.745 31.5114 24.2658 30.3747 23.3918C28.9295 22.1595 26.6562 23.4134 25.1708 22.2676C24.0374 21.406 24.2554 19.899 24.3493 18.7038Z" fill="url(#paint1_linear_451_832)"/>
<defs>
<linearGradient id="paint0_linear_451_832" x1="7.02947" y1="38.3189" x2="35.2588" y2="4.86187" gradientUnits="userSpaceOnUse">
<stop stop-color="#0072FF"/>
<stop offset="1" stop-color="#00E5A1"/>
</linearGradient>
<linearGradient id="paint1_linear_451_832" x1="16.5794" y1="32.7513" x2="28.9904" y2="18.1956" gradientUnits="userSpaceOnUse">
<stop stop-color="#0072FF"/>
<stop offset="1" stop-color="#00E5A1"/>
</linearGradient>
</defs>
</svg>
