<svg width="48" height="48" viewBox="0 0 48 48" fill="none" xmlns="http://www.w3.org/2000/svg">
<g clip-path="url(#clip0_451_853)">
<path fill-rule="evenodd" clip-rule="evenodd" d="M10.2049 3.76154C8.8599 3.7409 7.51448 3.72025 6.19378 3.96389C2.65583 4.68645 -0.0705605 7.8237 0.00656997 11.1741C0.00656997 13.6452 0.00492762 16.1165 0.0032852 18.5879C-0.000821131 24.7669 -0.00492792 30.9466 0.0166307 37.1247C0.0535192 40.9845 3.87316 44.3256 8.04825 44.2454C12.0085 44.2419 15.9692 44.2444 19.9301 44.2469C26.712 44.2511 33.4943 44.2553 40.2754 44.2299C44.3264 44.165 47.9247 40.8764 47.9717 37.137C48.0023 33.3009 47.996 29.4647 47.9898 25.6286C47.9879 24.4191 47.9859 23.2097 47.9851 22.0002C48.0991 21.0461 47.358 20.0765 46.2949 19.9838C45.1916 19.814 44.0782 20.6848 44.1084 21.7193C44.082 24.6827 44.0859 27.6461 44.0899 30.6087C44.0919 32.1593 44.094 33.7097 44.0917 35.2596C44.0893 35.4537 44.0919 35.6504 44.0944 35.8483C44.1066 36.8089 44.1192 37.7975 43.5853 38.6501C42.8274 39.9624 41.2177 40.7529 39.6148 40.6696C34.8295 40.664 30.0435 40.6647 25.2575 40.6655C19.5185 40.6664 13.7795 40.6673 8.04158 40.6572C5.8316 40.6881 3.84968 38.857 3.9134 36.8159C3.90669 28.2779 3.90669 19.7368 3.91004 11.1957C3.84297 9.1392 5.85172 7.28954 8.08515 7.34203C8.9937 7.35517 9.90473 7.34463 10.8161 7.33407C12.4748 7.31487 14.1344 7.29567 15.7814 7.41923C16.749 7.81545 17.4506 8.54828 18.1502 9.27908C18.5248 9.67035 18.8987 10.061 19.3127 10.3991C20.6205 11.7454 22.5186 12.5976 24.4938 12.5822C29.2288 12.5925 33.9638 12.6002 38.6978 12.6077C41.0114 12.6115 43.3247 12.6152 45.6377 12.6192C46.5565 12.7088 47.576 12.3043 47.8677 11.4489C48.3842 10.328 47.3111 8.9601 45.9931 9.07125C38.934 9.0342 31.8748 9.01568 24.8158 9.01568C24.0914 9.0249 23.3369 8.8767 22.76 8.44748C22.1236 7.9491 21.555 7.37913 20.9865 6.80921C20.153 5.97375 19.3197 5.13841 18.2731 4.52897C16.8366 3.70558 15.1488 3.73318 13.4996 3.76015C13.0274 3.76788 12.5584 3.77555 12.0993 3.76317C11.4697 3.78095 10.8373 3.77124 10.2049 3.76154ZM26.1643 16.6432C25.3189 16.7405 24.7649 17.5324 24.8305 18.2842C24.805 20.7305 24.8159 23.1802 24.8342 25.63C23.5478 25.0394 22.1265 24.64 20.6762 24.7742C17.5969 24.932 14.8455 27.2139 14.3609 30.0193C13.858 32.4691 15.1007 35.1202 17.3892 36.4592C19.736 37.9088 23.0376 37.8383 25.3079 36.2846C27.13 35.1067 28.1686 33.0799 28.2304 31.0529C28.1456 28.7305 28.1538 26.4079 28.1621 24.0846C28.1672 22.6146 28.1724 21.1443 28.154 19.6735C28.8814 19.6196 29.6105 19.6094 30.3397 19.5992C31.1083 19.5884 31.8769 19.5777 32.6436 19.5158C33.8316 19.4017 34.4147 17.9016 33.6275 17.0861C33.1486 16.4734 32.3095 16.4899 31.5605 16.5047C31.4604 16.5066 31.3619 16.5086 31.2661 16.5089C30.5836 16.5373 29.8995 16.5412 29.2152 16.5452C28.1967 16.551 27.1779 16.5569 26.1643 16.6432ZM18.7339 33.5261C16.5875 31.8483 17.7353 28.2743 20.4977 27.8817C22.7242 27.4018 25.0893 29.2643 24.7649 31.3886C24.7649 34.0766 20.7127 35.4591 18.7339 33.5261Z" fill="url(#paint0_linear_451_853)"/>
</g>
<defs>
<linearGradient id="paint0_linear_451_853" x1="5.625" y1="17.625" x2="46.5" y2="24" gradientUnits="userSpaceOnUse">
<stop stop-color="#A93AFF"/>
<stop offset="1" stop-color="#FF81FF"/>
</linearGradient>
<clipPath id="clip0_451_853">
<rect width="48" height="48" fill="white"/>
</clipPath>
</defs>
</svg>
