<?xml version="1.0" encoding="UTF-8" standalone="no"?>
<svg
   width="23"
   height="22"
   viewBox="0 0 23 22"
   fill="none"
   version="1.1"
   id="svg2"
   sodipodi:docname="network-wireless-connected-25.svg"
   inkscape:version="1.3.2 (091e20ef0f, 2023-11-25, custom)"
   xmlns:inkscape="http://www.inkscape.org/namespaces/inkscape"
   xmlns:sodipodi="http://sodipodi.sourceforge.net/DTD/sodipodi-0.dtd"
   xmlns:xlink="http://www.w3.org/1999/xlink"
   xmlns="http://www.w3.org/2000/svg"
   xmlns:svg="http://www.w3.org/2000/svg">
  <sodipodi:namedview
     id="namedview2"
     pagecolor="#505050"
     bordercolor="#ffffff"
     borderopacity="1"
     inkscape:showpageshadow="0"
     inkscape:pageopacity="0"
     inkscape:pagecheckerboard="1"
     inkscape:deskcolor="#d1d1d1"
     inkscape:zoom="86.090909"
     inkscape:cx="11.499472"
     inkscape:cy="11"
     inkscape:window-width="3840"
     inkscape:window-height="2104"
     inkscape:window-x="0"
     inkscape:window-y="56"
     inkscape:window-maximized="1"
     inkscape:current-layer="svg2" />
  <path
     d="M21.0207 8.02571C21.0034 8.00823 20.9848 7.99263 20.9655 7.97793C18.4575 5.33621 15.0751 3.9502 11.5605 3.9502C9.76303 3.9502 8.02661 4.3063 6.39954 5.00858C4.56424 5.80077 3.34831 6.77766 2.10025 8.02571C1.87737 8.2486 1.88394 8.60641 2.10025 8.82271L3.70761 10.4301C3.93579 10.6583 4.30588 10.6475 4.52144 10.4126C6.34393 8.42587 8.84379 7.33175 11.5605 7.33175C14.2772 7.33175 16.7771 8.42587 18.5995 10.4126C18.8164 10.6489 19.1865 10.657 19.4133 10.4301L21.0207 8.82271C21.026 8.81749 21.0305 8.81182 21.0355 8.8064C21.0389 8.80257 21.0425 8.79881 21.0458 8.79489C21.2399 8.57351 21.232 8.23686 21.0207 8.02571ZM11.5605 12.9676C10.3371 12.9676 9.20447 13.5166 8.45301 14.4738C8.27689 14.6981 8.29614 15.0186 8.49779 15.2203L11.162 17.8845C11.382 18.1046 11.7391 18.1045 11.959 17.8845L14.6232 15.2203C14.8249 15.0186 14.8441 14.6981 14.668 14.4738C13.9166 13.5166 12.784 12.9676 11.5605 12.9676ZM11.5605 8.45892C9.15127 8.45892 6.8983 9.44808 5.27781 11.2442C5.0768 11.4669 5.08559 11.8081 5.29773 12.0202L6.88854 13.611C7.11961 13.8422 7.4972 13.8282 7.71117 13.5836C8.68063 12.4758 10.0837 11.8405 11.5605 11.8405C13.0374 11.8405 14.4404 12.4758 15.4099 13.5836C15.6242 13.8287 16.0018 13.8418 16.2326 13.611L17.8233 12.0202C18.0354 11.8081 18.0444 11.4669 17.8433 11.2442C16.2228 9.44818 13.97 8.45892 11.5605 8.45892Z"
     fill="url(#paint0_linear_451_1634)"
     id="path1" />
  <defs
     id="defs2">
    <linearGradient
       id="paint0_linear_451_1634"
       x1="11.5605"
       y1="18.0495"
       x2="11.3887"
       y2="11.2576"
       gradientUnits="userSpaceOnUse">
      <stop
         stop-color="#00FF85"
         id="stop1" />
      <stop
         offset="1"
         stop-color="#FFE600"
         id="stop2" />
    </linearGradient>
    <linearGradient
       inkscape:collect="always"
       xlink:href="#paint3_radial_451_1653"
       id="linearGradient7"
       x1="15.02371"
       y1="14.941723"
       x2="22.197611"
       y2="14.941723"
       gradientUnits="userSpaceOnUse"
       gradientTransform="translate(-1.02371,-0.96875713)" />
    <radialGradient
       id="paint3_radial_451_1653"
       cx="0"
       cy="0"
       r="1"
       gradientUnits="userSpaceOnUse"
       gradientTransform="matrix(-0.29891404,-7.9937132,11.316191,-0.42315358,18.61071,18.810448)">
      <stop
         offset="0"
         stop-color="#02AA93"
         id="stop10"
         style="stop-color:#f70fa8;stop-opacity:1;" />
      <stop
         offset="1"
         stop-color="#67FF80"
         id="stop11"
         style="stop-color:#f40631;stop-opacity:1;" />
    </radialGradient>
  </defs>
  <path
     d="m 17.587,9.8479409 c -1.3248,0 -2.5109,1.0822501 -2.5109,2.3945501 v 1.1924 h -0.4785 c -0.331,0 -0.5976,0.2032 -0.5976,0.5275 v 3.5499 c 0,0.3248 0.2666,0.5857 0.5976,0.5857 h 5.9787 c 0.3311,0 0.5976,-0.2609 0.5976,-0.5857 v -3.5499 c 0,-0.3244 -0.2666,-0.5393 -0.5976,-0.5275 h -0.4785 v -1.1924 c 0,-1.3118 -1.1862,-2.3945501 -2.5108,-2.3945501 z m 0,1.4347501 c 0.5961,0 1.0761,0.4839 1.0761,1.0845 v 1.0677 h -2.1522 v -1.0677 c 0,-0.6006 0.4799,-1.0845 1.0761,-1.0845 z"
     fill="url(#paint3_radial_451_1653)"
     id="path4"
     style="fill:url(#linearGradient7)" />
</svg>
