<?xml version="1.0" encoding="UTF-8" standalone="no"?>
<svg
   width="23"
   height="22"
   viewBox="0 0 23 22"
   fill="none"
   version="1.1"
   id="svg14"
   sodipodi:docname="network-wireless-connected-00.svg"
   inkscape:version="1.3.2 (091e20ef0f, 2023-11-25, custom)"
   xmlns:inkscape="http://www.inkscape.org/namespaces/inkscape"
   xmlns:sodipodi="http://sodipodi.sourceforge.net/DTD/sodipodi-0.dtd"
   xmlns:xlink="http://www.w3.org/1999/xlink"
   xmlns="http://www.w3.org/2000/svg"
   xmlns:svg="http://www.w3.org/2000/svg">
  <sodipodi:namedview
     id="namedview14"
     pagecolor="#505050"
     bordercolor="#ffffff"
     borderopacity="1"
     inkscape:showpageshadow="0"
     inkscape:pageopacity="0"
     inkscape:pagecheckerboard="1"
     inkscape:deskcolor="#d1d1d1"
     inkscape:zoom="86.090909"
     inkscape:cx="11.499472"
     inkscape:cy="11"
     inkscape:window-width="3840"
     inkscape:window-height="2104"
     inkscape:window-x="0"
     inkscape:window-y="56"
     inkscape:window-maximized="1"
     inkscape:current-layer="svg14" />
  <path
     d="M21.1653 8.00233C21.1472 7.98423 21.128 7.96806 21.1082 7.95285C18.5105 5.21677 15.0072 3.78125 11.3671 3.78125C9.50547 3.78125 7.70704 4.15008 6.02186 4.87743C4.12101 5.69791 2.86164 6.70971 1.56902 8.00233C1.33818 8.23317 1.34499 8.60377 1.56902 8.82779L3.23379 10.4926C3.47012 10.7289 3.85343 10.7178 4.07668 10.4744C5.96426 8.41677 8.5534 7.28356 11.3671 7.28356C14.1808 7.28356 16.77 8.41677 18.6576 10.4744C18.8821 10.7192 19.2655 10.7276 19.5005 10.4926L21.1653 8.82779C21.1708 8.82238 21.1754 8.8165 21.1806 8.8109C21.1842 8.80693 21.188 8.80303 21.1912 8.79897C21.3923 8.56969 21.3841 8.22102 21.1653 8.00233ZM11.3672 13.1207C10.1 13.1207 8.92696 13.6893 8.14866 14.6807C7.96626 14.913 7.9862 15.245 8.19505 15.4538L10.9544 18.2133C11.1823 18.4412 11.5521 18.441 11.7799 18.2133L14.5393 15.4538C14.7481 15.245 14.768 14.913 14.5856 14.6807C13.8074 13.6893 12.6343 13.1207 11.3672 13.1207ZM11.3672 8.45101C8.87187 8.45101 6.53845 9.47549 4.86007 11.3357C4.65188 11.5664 4.66099 11.9198 4.88069 12.1395L6.5283 13.7871C6.76764 14.0265 7.15872 14.012 7.38032 13.7587C8.38442 12.6114 9.83755 11.9533 11.3672 11.9533C12.8968 11.9533 14.3499 12.6114 15.354 13.7587C15.576 14.0125 15.967 14.0261 16.2061 13.7871L17.8536 12.1395C18.0734 11.9198 18.0825 11.5664 17.8742 11.3357C16.196 9.47561 13.8627 8.45101 11.3672 8.45101Z"
     fill="url(#paint0_linear_451_1628)"
     id="path1" />
  <path
     d="M20.2612 12.022H18.7578C18.5679 12.022 18.4141 12.1759 18.4141 12.3657V17.7031C18.4141 17.893 18.5679 18.0469 18.7578 18.0469H20.2612C20.451 18.0469 20.605 17.893 20.605 17.7031V12.3657C20.605 12.1759 20.451 12.022 20.2612 12.022Z"
     fill="url(#paint1_linear_451_1628)"
     id="path2" />
  <path
     d="M20.6047 9.49257C20.608 9.63839 20.582 9.78347 20.5286 9.91925C20.4749 10.055 20.3949 10.1786 20.2929 10.283C20.1908 10.3873 20.069 10.4703 19.9346 10.5269C19.8002 10.5835 19.6556 10.6127 19.5097 10.6127C19.3638 10.6127 19.2194 10.5837 19.0848 10.5271C18.9504 10.4705 18.8286 10.3877 18.7265 10.2834C18.6244 10.1791 18.5443 10.0555 18.4906 9.91973C18.437 9.78402 18.4111 9.63901 18.4143 9.4931C18.4207 9.20685 18.5388 8.93453 18.7435 8.73428C18.948 8.53411 19.2228 8.42194 19.5092 8.42188C19.7955 8.42181 20.0704 8.53383 20.2752 8.73395C20.4799 8.93405 20.5982 9.20631 20.6047 9.49257Z"
     fill="url(#paint2_linear_451_1628)"
     id="path3" />
  <path
     d="M20.2612 12.022H18.7578C18.5679 12.022 18.4141 12.1759 18.4141 12.3657V17.7031C18.4141 17.893 18.5679 18.0469 18.7578 18.0469H20.2612C20.451 18.0469 20.605 17.893 20.605 17.7031V12.3657C20.605 12.1759 20.451 12.022 20.2612 12.022Z"
     stroke="url(#paint3_linear_451_1628)"
     stroke-width="0.6"
     id="path4" />
  <path
     d="M20.6047 9.49257C20.608 9.63839 20.582 9.78347 20.5286 9.91925C20.4749 10.055 20.3949 10.1786 20.2929 10.283C20.1908 10.3873 20.069 10.4703 19.9346 10.5269C19.8002 10.5835 19.6556 10.6127 19.5097 10.6127C19.3638 10.6127 19.2194 10.5837 19.0848 10.5271C18.9504 10.4705 18.8286 10.3877 18.7265 10.2834C18.6244 10.1791 18.5443 10.0555 18.4906 9.91973C18.437 9.78402 18.4111 9.63901 18.4143 9.4931C18.4207 9.20685 18.5388 8.93453 18.7435 8.73428C18.948 8.53411 19.2228 8.42194 19.5092 8.42188C19.7955 8.42181 20.0704 8.53383 20.2752 8.73395C20.4799 8.93405 20.5982 9.20631 20.6047 9.49257Z"
     stroke="url(#paint4_linear_451_1628)"
     stroke-width="0.6"
     id="path5" />
  <defs
     id="defs14">
    <linearGradient
       id="paint0_linear_451_1628"
       x1="1.39844"
       y1="11.0827"
       x2="21.3359"
       y2="11.0827"
       gradientUnits="userSpaceOnUse">
      <stop
         stop-color="#9EE170"
         id="stop5" />
      <stop
         offset="1"
         stop-color="#E5ECA2"
         id="stop6" />
    </linearGradient>
    <linearGradient
       id="paint1_linear_451_1628"
       x1="19.5096"
       y1="18.0469"
       x2="19.5096"
       y2="8.42186"
       gradientUnits="userSpaceOnUse">
      <stop
         stop-color="#FDA700"
         id="stop7" />
      <stop
         offset="1"
         stop-color="#FFDE00"
         id="stop8" />
    </linearGradient>
    <linearGradient
       id="paint2_linear_451_1628"
       x1="19.5094"
       y1="18.0469"
       x2="19.5094"
       y2="8.42188"
       gradientUnits="userSpaceOnUse">
      <stop
         stop-color="#FDA700"
         id="stop9" />
      <stop
         offset="1"
         stop-color="#FFDE00"
         id="stop10" />
    </linearGradient>
    <linearGradient
       id="paint3_linear_451_1628"
       x1="19.5096"
       y1="18.0469"
       x2="19.5096"
       y2="8.42186"
       gradientUnits="userSpaceOnUse">
      <stop
         stop-color="#FDA700"
         id="stop11" />
      <stop
         offset="1"
         stop-color="#FFDE00"
         id="stop12" />
    </linearGradient>
    <linearGradient
       id="paint4_linear_451_1628"
       x1="19.5094"
       y1="18.0469"
       x2="19.5094"
       y2="8.42188"
       gradientUnits="userSpaceOnUse">
      <stop
         stop-color="#FDA700"
         id="stop13" />
      <stop
         offset="1"
         stop-color="#FFDE00"
         id="stop14" />
    </linearGradient>
    <linearGradient
       inkscape:collect="always"
       xlink:href="#paint3_radial_451_1653"
       id="linearGradient7"
       x1="15.02371"
       y1="14.941723"
       x2="22.197611"
       y2="14.941723"
       gradientUnits="userSpaceOnUse"
       gradientTransform="translate(-13.650954,-0.60761669)" />
    <radialGradient
       id="paint3_radial_451_1653"
       cx="0"
       cy="0"
       r="1"
       gradientUnits="userSpaceOnUse"
       gradientTransform="matrix(-0.29891404,-7.9937132,11.316191,-0.42315358,18.61071,18.810448)">
      <stop
         offset="0"
         stop-color="#02AA93"
         id="stop10-3"
         style="stop-color:#f70fa8;stop-opacity:1;" />
      <stop
         offset="1"
         stop-color="#67FF80"
         id="stop11-6"
         style="stop-color:#f40631;stop-opacity:1;" />
    </radialGradient>
  </defs>
  <path
     d="m 4.9597561,10.209081 c -1.3248,0 -2.5109,1.08225 -2.5109,2.39455 v 1.1924 h -0.4785 c -0.331,0 -0.5976,0.2032 -0.5976,0.5275 v 3.5499 c 0,0.3248 0.2666,0.5857 0.5976,0.5857 h 5.9787 c 0.3311,0 0.5976,-0.2609 0.5976,-0.5857 v -3.5499 c 0,-0.3244 -0.2666,-0.5393 -0.5976,-0.5275 h -0.4785 v -1.1924 c 0,-1.3118 -1.1862,-2.39455 -2.5108,-2.39455 z m 0,1.43475 c 0.5961,0 1.0761,0.4839 1.0761,1.0845 v 1.0677 h -2.1522 v -1.0677 c 0,-0.6006 0.4799,-1.0845 1.0761,-1.0845 z"
     fill="url(#paint3_radial_451_1653)"
     id="path4-7"
     style="fill:url(#linearGradient7)" />
</svg>
