<svg width="128" height="128" viewBox="0 0 128 128" fill="none" xmlns="http://www.w3.org/2000/svg">
<path fill-rule="evenodd" clip-rule="evenodd" d="M21 16H107.532C116.369 16 123.532 23.1634 123.532 32V96.4264C123.532 105.263 116.369 112.426 107.532 112.426H21C12.1634 112.426 5 105.263 5 96.4264V32C5 23.1634 12.1635 16 21 16ZM21 28C18.7909 28 17 29.7909 17 32V96.4264C17 98.6356 18.7909 100.426 21 100.426H107.532C109.742 100.426 111.532 98.6356 111.532 96.4264V32C111.532 29.7909 109.742 28 107.532 28H21Z" fill="url(#paint0_linear_1005_261)"/>
<path fill-rule="evenodd" clip-rule="evenodd" d="M37.327 42.6548C35.8868 41.0285 32.8811 40.3683 30.5713 41.2872C27.5936 42.3221 26.7866 45.538 28.8808 47.4019C32.1725 50.7741 35.4828 54.1369 38.793 57.4998C40.4433 59.1763 42.0936 60.8528 43.7416 62.5303C44.5627 63.2326 44.9105 64.3469 43.9712 65.0914C40.8818 68.2943 37.7482 71.4741 34.6139 74.6547C32.844 76.4507 31.0739 78.247 29.3113 80.0478C29.1682 80.194 29.0106 80.3272 28.8558 80.461C25.9845 82.9445 28.7203 87.358 33.1595 87.1214C34.9754 87.0897 36.5268 86.1816 37.5426 85.1043C39.2913 83.3239 41.0381 81.5429 42.7847 79.7623C46.9797 75.4854 51.1736 71.21 55.3882 66.9448C55.5409 66.7858 55.6954 66.6277 55.8499 66.4697C56.3559 65.9519 56.8621 65.434 57.3007 64.884C57.592 64.5188 57.836 64.0587 57.6706 63.6218C57.5123 63.2039 57.1475 62.8295 56.7934 62.4662C56.6312 62.2998 56.4712 62.1356 56.3345 61.9707C53.9538 59.553 51.576 57.1329 49.1983 54.713C45.2457 50.6901 41.2932 46.6673 37.327 42.6548ZM57.2842 76.1865C56.5956 76.1941 55.8946 76.2018 55.261 76.5615C54.069 77.1734 53.2563 78.73 53.2455 80.3409C53.1534 82.6453 54.8872 84.8884 56.751 84.6573C62.1824 84.6764 67.6163 84.6721 73.0494 84.6679C75.262 84.6661 77.4744 84.6644 79.6865 84.6642C79.9057 84.6642 80.1247 84.69 80.3439 84.6951C82.1819 84.7378 83.811 82.5962 83.668 80.2728C83.6406 77.9481 81.8902 76.0109 80.0539 76.1943C76.2162 76.1733 72.3771 76.1776 68.5379 76.1822C64.9679 76.1863 61.3979 76.1904 57.8291 76.174C57.6493 76.1826 57.4672 76.1846 57.2842 76.1865Z" fill="url(#paint1_linear_1005_261)"/>
<defs>
<linearGradient id="paint0_linear_1005_261" x1="101.522" y1="95.1009" x2="49.8569" y2="22.0492" gradientUnits="userSpaceOnUse">
<stop stop-color="#248EFE"/>
<stop offset="1" stop-color="#1DF4FF"/>
</linearGradient>
<linearGradient id="paint1_linear_1005_261" x1="73.278" y1="78.8187" x2="48.3671" y2="44.1324" gradientUnits="userSpaceOnUse">
<stop stop-color="#248EFE"/>
<stop offset="1" stop-color="#1DF4FF"/>
</linearGradient>
</defs>
</svg>
