<svg width="24" height="24" viewBox="0 0 24 24" fill="none" xmlns="http://www.w3.org/2000/svg">
<g clip-path="url(#clip0_1005_437)">
<path fill-rule="evenodd" clip-rule="evenodd" d="M3.464 3.464C2 4.93 2 7.286 2 12C2 16.714 2 19.071 3.464 20.535C4.93 22 7.286 22 12 22C16.714 22 19.071 22 20.535 20.535C22 19.072 22 16.714 22 12C22 7.286 22 4.929 20.535 3.464C19.072 2 16.714 2 12 2C7.286 2 4.929 2 3.464 3.464ZM16 10C16.5304 10 17.0391 9.78933 17.4142 9.41422C17.7893 9.03911 18 8.53043 18 8C18 7.46957 17.7893 6.96086 17.4142 6.58579C17.0391 6.21071 16.5304 6 16 6C15.4696 6 14.9609 6.21071 14.5858 6.58579C14.2107 6.96086 14 7.46957 14 8C14 8.53043 14.2107 9.03911 14.5858 9.41422C14.9609 9.78933 15.4696 10 16 10ZM6.32 13.104C6.61988 12.8252 7.01787 12.6764 7.42706 12.6901C7.83622 12.7039 8.22344 12.8789 8.504 13.177L11.152 15.987C11.538 16.397 12.0613 16.6507 12.6223 16.6997C13.1832 16.7488 13.7427 16.5898 14.194 16.253C14.4909 16.0314 14.8567 15.9221 15.2266 15.9447C15.5963 15.9672 15.9462 16.12 16.214 16.376L18.482 18.542C18.6269 18.6731 18.8172 18.7426 19.0124 18.7354C19.2077 18.7284 19.3926 18.6454 19.5276 18.5041C19.6626 18.3629 19.7371 18.1746 19.7353 17.9791C19.7336 17.7838 19.6556 17.5968 19.518 17.458L17.25 15.29C16.7258 14.7892 16.0411 14.4904 15.3174 14.4464C14.5938 14.4026 13.878 14.6163 13.297 15.05C13.1406 15.1666 12.9467 15.2214 12.7523 15.2043C12.5579 15.1871 12.3767 15.0991 12.243 14.957L9.596 12.147C9.04378 11.5609 8.28222 11.2169 7.47747 11.1901C6.67267 11.1633 5.88992 11.4559 5.3 12.004L4.49 12.756C4.34413 12.8912 4.25797 13.0789 4.25047 13.2777C4.24297 13.4766 4.31474 13.6701 4.45 13.816C4.58526 13.9619 4.77292 14.048 4.97171 14.0556C5.1705 14.063 5.36413 13.9912 5.51 13.856L6.32 13.104Z" stroke="url(#paint0_linear_1005_437)" stroke-width="2.6"/>
</g>
<defs>
<linearGradient id="paint0_linear_1005_437" x1="12" y1="22" x2="12" y2="2" gradientUnits="userSpaceOnUse">
<stop stop-color="#5558FF"/>
<stop offset="1" stop-color="#00C0FF"/>
</linearGradient>
<clipPath id="clip0_1005_437">
<rect width="24" height="24" fill="white"/>
</clipPath>
</defs>
</svg>
