<svg width="128" height="128" viewBox="0 0 128 128" fill="none" xmlns="http://www.w3.org/2000/svg">
<path d="M8.05767 18.3629C9.95612 14.1343 14.3932 12.2046 18.5666 12.2756C27.7499 12.2756 27.7499 12.2756 46.4346 11.8115C48.381 11.7316 50.1033 12.9905 51.401 14.4888C53.8051 17.2913 56.1487 20.1556 58.5629 22.9484C60.0032 24.6146 62.112 25.5363 64.3145 25.5257C80.2956 25.4489 96.2825 25.4688 112.262 25.535C117.629 25.6059 121.9 31.0403 121.979 36.8206C122.002 58.3989 121.956 79.9682 121.995 101.547C122.09 105.767 120.857 110.351 117.783 113.062C116.147 114.498 113.783 115.709 112.216 116.059C78.8279 116.165 45.4253 116.149 12.0308 116.149C9.11502 116.572 5.86287 113.851 6.01506 110.465C6.02307 95.979 5.95899 81.493 6.0471 67.007C6.03108 63.6736 6.01489 61.0921 6.01525 57.1044C6.01506 49.9324 14.6821 49.8881 19.2479 49.9236C42.1972 49.9236 65.1545 49.9147 88.1038 49.9324C91.3719 49.498 94.5359 53.7534 92.8778 57.1044C92.1249 59.1967 90.0663 60.2428 88.1357 60.2428C65.1946 60.296 46.3414 60.2428 23.4 60.2428C17.2588 60.2428 15.4973 63.0254 15.4672 66.2978C15.365 77.3829 15.5115 88.4745 15.4253 99.5615C15.4003 102.802 18.0099 105.457 21.2502 105.46C49.2534 105.483 78.5526 105.608 106.546 105.569C109.744 105.565 112.333 102.956 112.333 99.7587C112.318 79.1817 112.54 61.5883 112.412 41.5239C112.392 38.3516 109.818 35.7905 106.646 35.7833C90.8339 35.7476 75.0233 35.813 59.219 35.7656C56.968 35.863 55.1819 34.09 53.7719 32.3613C51.7528 29.8888 49.6831 27.4631 47.63 25.0197C46.1452 23.2526 43.9557 22.2093 41.6476 22.235C36.749 22.2894 36.437 22.4624 29.1999 22.4255C28.6001 22.4581 24.2386 22.6469 20.9587 22.7879C18.8893 22.8767 17.2572 24.5791 17.1212 26.6461C16.9071 29.9006 16.3595 34.3237 14.96 35.668C12.2925 38.2301 6.84813 36.2887 6.32746 32.4233C6.11117 27.707 6.03108 22.6716 8.05767 18.3629Z" fill="url(#paint0_linear_1013_878)" stroke="url(#paint1_linear_1013_878)" stroke-width="6"/>
<defs>
<linearGradient id="paint0_linear_1013_878" x1="101.761" y1="58.162" x2="58.0073" y2="114.661" gradientUnits="userSpaceOnUse">
<stop stop-color="#FD2E00"/>
<stop offset="1" stop-color="#FF9900"/>
</linearGradient>
<linearGradient id="paint1_linear_1013_878" x1="101.761" y1="58.162" x2="58.0073" y2="114.661" gradientUnits="userSpaceOnUse">
<stop stop-color="#FD2E00"/>
<stop offset="1" stop-color="#FF9900"/>
</linearGradient>
</defs>
</svg>
